<svg width="512" height="512" viewBox="0 0 512 512" fill="none" xmlns="http://www.w3.org/2000/svg">
<g clip-path="url(#clip0_1_3)">
<path d="M416 0H96C42.9807 0 0 42.9807 0 96V416C0 469.019 42.9807 512 96 512H416C469.019 512 512 469.019 512 416V96C512 42.9807 469.019 0 416 0Z" fill="#0A0A15"/>
<path d="M167.271 165.628C164.801 165.628 162.731 164.974 161.06 163.667C159.462 162.359 158.154 160.688 157.137 158.654C156.193 156.548 155.43 154.296 154.849 151.898C154.34 149.429 153.941 147.031 153.65 144.707C153.432 142.382 153.251 140.348 153.106 138.605C152.815 135.118 152.633 131.922 152.561 129.016C152.561 126.038 152.561 122.805 152.561 119.318V110.71C152.561 109.403 152.597 107.913 152.67 106.243C152.742 104.572 152.997 102.974 153.432 101.448C153.868 99.8501 154.595 98.5425 155.612 97.5255C156.701 96.5085 158.227 96 160.188 96C161.205 96 162.295 96.3995 163.457 97.1986C164.692 97.9977 165.31 98.9057 165.31 99.9227V136.535C165.31 136.68 165.346 137.152 165.418 137.951C165.564 138.75 165.673 139.586 165.745 140.457C165.818 141.329 165.854 141.983 165.854 142.419C165.854 143.218 166.036 144.271 166.399 145.579C166.835 146.886 167.198 147.976 167.489 148.848L167.925 149.719H168.252C168.978 148.194 169.886 146.269 170.976 143.944C172.138 141.547 173.337 139.15 174.571 136.753C175.806 134.283 176.896 132.067 177.84 130.106C178.857 128.072 179.547 126.619 179.911 125.747C181.581 122.696 183.071 120.045 184.378 117.793C185.758 115.468 187.865 113.216 190.698 111.037H192.442C194.403 111.037 196.255 111.654 197.999 112.889C199.815 114.124 201.05 115.686 201.703 117.575L210.965 144.489L211.401 145.47H212.382C212.455 145.397 212.491 145.252 212.491 145.034C212.564 144.743 212.6 144.562 212.6 144.489C215.36 137.806 217.649 131.341 219.465 125.093C221.353 118.846 223.206 112.09 225.022 104.826C225.676 103.155 226.511 101.557 227.528 100.032C228.618 98.4335 230.179 97.6345 232.213 97.6345C233.521 97.6345 234.538 98.1066 235.264 99.051C235.991 99.9227 236.499 100.976 236.79 102.211C237.08 103.373 237.226 104.427 237.226 105.371V106.352C237.226 106.787 237.153 107.478 237.008 108.422C236.862 109.294 236.754 109.875 236.681 110.165L226.438 145.143C226.002 146.596 225.349 148.339 224.477 150.373C223.605 152.334 222.552 154.296 221.317 156.257C220.082 158.146 218.666 159.744 217.067 161.051C215.469 162.286 213.726 162.904 211.837 162.904C209.149 162.904 207.043 162.105 205.517 160.507C203.992 158.836 202.793 156.911 201.921 154.732C200.469 150.954 198.907 146.959 197.236 142.746C195.565 138.46 194.112 133.919 192.877 129.125H192.55L192.115 129.561C191.606 130.578 190.88 132.14 189.935 134.246C188.991 136.353 187.938 138.605 186.775 141.002C185.686 143.327 184.669 145.47 183.724 147.431C182.853 149.392 182.235 150.773 181.872 151.572C181 153.533 179.911 155.603 178.603 157.783C177.368 159.962 175.843 161.814 174.027 163.34C172.211 164.865 169.959 165.628 167.271 165.628Z" fill="white"/>
<path d="M269.111 171.076C265.77 171.076 262.646 170.313 259.74 168.788C256.835 167.262 254.401 165.228 252.44 162.686C250.478 160.071 249.207 157.129 248.626 153.86V148.303C248.626 144.235 249.352 140.13 250.805 135.99C252.258 131.849 254.329 128.035 257.016 124.549C259.704 120.989 262.9 118.156 266.605 116.049C270.31 113.87 274.378 112.78 278.809 112.78C280.625 112.78 282.187 113.107 283.495 113.761C284.875 114.415 286.11 115.105 287.199 115.831C288.362 116.485 289.488 116.885 290.577 117.03C291.158 114.052 291.957 112.09 292.974 111.146C293.991 110.129 295.372 109.62 297.115 109.62C299.222 109.62 300.638 110.311 301.365 111.691C302.164 112.998 302.563 114.669 302.563 116.703C302.563 120.698 302.454 124.621 302.236 128.471C302.091 132.321 302.018 136.28 302.018 140.348C302.018 143.545 302.2 146.85 302.563 150.264C302.926 153.678 303.108 156.983 303.108 160.18V162.468C303.108 164.066 302.781 165.555 302.127 166.936C301.546 168.243 300.202 168.897 298.096 168.897C296.134 168.897 294.718 168.316 293.846 167.153C293.047 165.919 292.502 164.466 292.212 162.795C291.994 161.051 291.776 159.49 291.558 158.109L291.122 157.674C288.652 160.143 286.437 162.395 284.475 164.429C282.586 166.463 280.48 168.098 278.155 169.333C275.831 170.495 272.816 171.076 269.111 171.076ZM268.022 160.071C270.564 160.071 272.961 159.308 275.213 157.783C277.538 156.184 279.608 154.15 281.424 151.681C283.24 149.138 284.657 146.487 285.674 143.726C286.691 140.966 287.199 138.387 287.199 135.99C287.199 134.174 286.945 132.358 286.437 130.542C285.928 128.653 285.056 127.055 283.821 125.747C282.659 124.44 280.988 123.786 278.809 123.786C276.412 123.786 274.051 124.621 271.726 126.292C269.474 127.963 267.441 130.106 265.624 132.721C263.808 135.263 262.356 137.951 261.266 140.784C260.176 143.545 259.631 146.051 259.631 148.303C259.631 150.119 259.886 151.935 260.394 153.751C260.975 155.567 261.883 157.092 263.118 158.327C264.353 159.49 265.988 160.071 268.022 160.071Z" fill="white"/>
<path d="M336.71 171.621C334.676 171.621 332.351 171.439 329.736 171.076C327.121 170.786 324.578 170.204 322.109 169.333C319.639 168.461 317.568 167.153 315.898 165.41C314.3 163.667 313.5 161.378 313.5 158.545C313.5 156.657 313.973 155.022 314.917 153.642C315.861 152.189 317.387 151.463 319.493 151.463C320.801 151.463 321.818 151.79 322.544 152.443C323.271 153.097 323.888 153.896 324.397 154.841C324.978 155.785 325.632 156.766 326.358 157.783C327.157 158.727 328.211 159.526 329.518 160.18C330.898 160.834 332.751 161.16 335.075 161.16C336.746 161.16 338.562 160.979 340.524 160.616C342.558 160.18 344.301 159.417 345.754 158.327C347.207 157.238 347.933 155.749 347.933 153.86C347.933 152.189 347.243 150.882 345.863 149.937C344.483 148.92 342.703 148.048 340.524 147.322C338.344 146.596 336.056 145.869 333.659 145.143C331.262 144.344 328.973 143.363 326.794 142.201C324.615 141.038 322.835 139.513 321.455 137.624C320.075 135.663 319.385 133.157 319.385 130.106C319.385 127.273 320.075 124.839 321.455 122.805C322.835 120.771 324.615 119.1 326.794 117.793C329.046 116.413 331.443 115.432 333.986 114.851C336.601 114.197 339.107 113.87 341.504 113.87C342.884 113.87 344.483 114.052 346.299 114.415C348.115 114.705 349.894 115.214 351.638 115.94C353.381 116.667 354.834 117.684 355.996 118.991C357.159 120.226 357.74 121.788 357.74 123.677C357.74 127.018 356.069 128.689 352.727 128.689H351.311C349.132 127.454 347.279 126.51 345.754 125.856C344.228 125.202 342.485 124.875 340.524 124.875C339.652 124.875 338.417 124.984 336.819 125.202C335.293 125.348 333.913 125.747 332.678 126.401C331.443 127.055 330.826 128.108 330.826 129.561C330.826 130.796 331.516 131.813 332.896 132.612C334.276 133.411 336.056 134.174 338.235 134.9C340.415 135.627 342.703 136.426 345.1 137.297C347.497 138.169 349.785 139.295 351.965 140.675C354.144 141.983 355.924 143.654 357.304 145.688C358.684 147.722 359.374 150.264 359.374 153.315C359.374 157.746 358.248 161.306 355.996 163.993C353.817 166.681 350.984 168.643 347.497 169.878C344.083 171.04 340.487 171.621 336.71 171.621Z" fill="white"/>
<path d="M160.12 301.835C158.013 301.108 155.979 300.127 154.018 298.892C152.129 297.73 150.567 296.35 149.332 294.752C148.17 293.226 147.589 291.556 147.589 289.74C147.589 288.069 148.17 286.834 149.332 286.035C150.567 285.236 151.875 284.836 153.255 284.836C154.853 284.836 156.161 285.308 157.178 286.253C158.267 287.27 159.393 288.25 160.556 289.195C161.79 290.212 163.28 290.72 165.023 290.72C167.13 290.72 168.982 290.03 170.58 288.65C172.178 287.27 173.522 285.49 174.612 283.311C175.702 281.131 176.537 278.807 177.118 276.337C177.772 273.867 178.135 271.543 178.208 269.363C178.28 268.855 178.389 267.765 178.535 266.094C178.68 264.351 178.825 262.535 178.97 260.646C179.188 258.757 179.297 257.377 179.297 256.506V255.416C179.297 254.835 179.152 254.544 178.861 254.544H178.426C176.246 257.087 173.994 259.702 171.67 262.39C169.418 265.077 166.875 267.329 164.042 269.145C161.209 270.889 157.94 271.76 154.236 271.76C151.403 271.76 148.751 271.034 146.281 269.581C143.811 268.128 141.814 266.167 140.288 263.697C138.763 261.227 138 258.467 138 255.416C138 250.404 138.981 245.428 140.942 240.488C142.903 235.475 145.627 230.935 149.114 226.867C152.601 222.799 156.633 219.53 161.209 217.061C165.858 214.591 170.871 213.356 176.246 213.356C177.699 213.356 179.225 213.61 180.823 214.119C182.421 214.627 183.765 215.462 184.854 216.625C186.017 217.714 186.598 219.204 186.598 221.092C186.598 222.763 185.98 224.107 184.746 225.124C183.583 226.141 182.167 226.649 180.496 226.649C179.334 226.649 178.171 226.468 177.009 226.105C175.919 225.741 174.793 225.56 173.631 225.56H171.452C167.457 226.722 163.824 228.792 160.556 231.771C157.359 234.676 154.817 238.091 152.928 242.013C151.039 245.863 150.095 249.786 150.095 253.781V257.486C150.676 259.593 151.875 260.646 153.691 260.646C155.362 260.646 157.032 260.029 158.703 258.794C160.374 257.559 162.008 256.033 163.607 254.217C165.205 252.329 166.694 250.476 168.074 248.66C169.454 246.771 170.726 245.21 171.888 243.975C172.977 242.086 174.212 240.306 175.593 238.635C176.973 236.892 178.244 235.076 179.406 233.187C180.205 232.17 180.968 231.48 181.695 231.117C182.421 230.754 183.293 230.572 184.31 230.572C186.126 230.572 187.433 231.081 188.232 232.098C189.104 233.042 189.722 234.241 190.085 235.693C190.448 237.146 190.702 238.526 190.848 239.834V248.006C190.848 250.985 190.739 254.363 190.521 258.14C190.375 261.917 190.012 265.84 189.431 269.908C188.922 273.903 188.087 277.79 186.925 281.567C185.763 285.345 184.201 288.759 182.239 291.81C180.351 294.861 177.953 297.294 175.048 299.11C172.142 300.926 168.619 301.835 164.478 301.835H160.12Z" fill="white"/>
<path d="M231.271 272.741C226.041 272.741 221.21 271.942 216.779 270.344C212.421 268.673 208.898 266.058 206.21 262.499C203.522 258.866 202.178 254.181 202.178 248.442C202.178 244.084 202.868 239.834 204.248 235.693C205.701 231.553 207.772 227.812 210.459 224.47C213.147 221.056 216.38 218.368 220.157 216.407C223.935 214.373 228.184 213.356 232.906 213.356C236.102 213.356 239.081 214.01 241.841 215.317C244.674 216.552 246.926 218.404 248.597 220.874C250.34 223.272 251.212 226.214 251.212 229.7C251.212 233.042 250.522 236.238 249.142 239.289C247.761 242.34 245.873 245.064 243.475 247.461C241.078 249.859 238.354 251.747 235.303 253.128C232.325 254.435 229.201 255.089 225.932 255.089C225.424 255.089 224.298 254.98 222.554 254.762C220.811 254.472 219.431 254.181 218.414 253.89C217.687 253.745 217.106 253.455 216.67 253.019C216.525 252.946 216.271 252.837 215.908 252.692C215.544 252.474 215.29 252.365 215.145 252.365C215.653 254.472 216.707 256.251 218.305 257.704C219.975 259.084 221.864 260.101 223.971 260.755C226.15 261.409 228.22 261.736 230.182 261.736C231.562 261.736 232.942 261.663 234.322 261.518C235.775 261.3 237.301 261.191 238.899 261.191C240.497 261.191 241.877 261.627 243.04 262.499C244.202 263.37 244.783 264.787 244.783 266.748C244.783 268.346 244.274 269.581 243.257 270.453C242.313 271.325 241.078 271.906 239.553 272.196C238.1 272.487 236.611 272.632 235.085 272.632C233.632 272.705 232.361 272.741 231.271 272.741ZM225.932 242.449C228.111 242.449 230.254 242.05 232.361 241.251C234.54 240.379 236.32 239.108 237.7 237.437C239.153 235.766 239.88 233.696 239.88 231.226C239.88 229.119 239.226 227.448 237.918 226.214C236.683 224.979 235.013 224.361 232.906 224.361C231.017 224.361 229.02 224.87 226.913 225.887C224.806 226.904 222.809 228.211 220.92 229.809C219.104 231.407 217.615 233.151 216.452 235.04C215.29 236.856 214.709 238.635 214.709 240.379V240.815C216.598 241.105 218.486 241.468 220.375 241.904C222.264 242.268 224.116 242.449 225.932 242.449Z" fill="white"/>
<path d="M269.486 270.562C267.452 270.562 265.927 269.872 264.91 268.492C263.965 267.039 263.493 265.368 263.493 263.479C263.493 259.121 263.748 254.689 264.256 250.186C264.837 245.682 265.128 241.323 265.128 237.11C265.128 229.846 264.837 222.763 264.256 215.862C263.748 208.961 263.493 201.878 263.493 194.614V191.781C264.002 190.619 264.692 189.82 265.564 189.384C266.508 188.875 267.489 188.621 268.506 188.621C270.176 188.621 271.52 189.202 272.537 190.364C273.627 191.527 274.462 192.943 275.043 194.614C275.625 196.285 276.024 197.956 276.242 199.626C276.533 201.297 276.678 202.677 276.678 203.767V239.943L277.332 240.597L277.441 240.488C279.402 238.526 281.254 236.311 282.998 233.841C284.814 231.371 286.666 229.01 288.555 226.758C290.516 224.434 292.659 222.509 294.984 220.983C297.381 219.458 300.141 218.695 303.265 218.695C306.026 218.695 308.386 219.421 310.348 220.874C312.382 222.327 313.98 224.216 315.142 226.54C316.304 228.865 317.067 231.299 317.43 233.841L320.699 256.941V260.21C320.699 261.373 320.627 262.607 320.481 263.915C320.336 265.15 319.9 266.203 319.174 267.075C318.52 267.947 317.358 268.383 315.687 268.383C313.798 268.383 312.309 267.656 311.219 266.203C310.202 264.678 309.476 262.825 309.04 260.646C308.604 258.467 308.314 256.324 308.168 254.217C308.023 252.111 307.878 250.44 307.733 249.205C307.66 248.696 307.551 247.752 307.406 246.372C307.333 244.992 307.188 243.394 306.97 241.577C306.752 239.761 306.461 238.018 306.098 236.347C305.735 234.604 305.263 233.187 304.682 232.098C304.173 230.935 303.519 230.354 302.72 230.354C301.485 230.354 300.25 230.863 299.016 231.88C297.781 232.897 296.764 233.95 295.965 235.04C292.187 239.979 288.555 245.21 285.068 250.73C281.654 256.179 278.24 261.518 274.826 266.748C274.244 267.692 273.518 268.564 272.646 269.363C271.775 270.162 270.721 270.562 269.486 270.562Z" fill="white"/>
<path d="M348.827 273.286C346.575 273.286 344.905 272.596 343.815 271.216C342.725 269.835 341.999 268.165 341.636 266.203C341.345 264.169 341.2 262.317 341.2 260.646V256.506C341.2 251.929 341.273 247.316 341.418 242.667C341.636 238.018 341.781 233.006 341.854 227.63C340.038 227.703 338.476 227.812 337.168 227.957C335.933 228.102 334.662 228.175 333.354 228.175C330.013 228.175 328.342 226.54 328.342 223.272C328.342 222.037 328.56 220.874 328.996 219.785C329.432 218.622 330.34 217.896 331.72 217.605L341.309 215.426C342.544 215.136 343.343 214.373 343.706 213.138C344.142 211.83 344.36 210.341 344.36 208.67C344.432 206.927 344.541 205.22 344.687 203.549C344.905 201.878 345.449 200.498 346.321 199.408C347.266 198.319 348.827 197.774 351.007 197.774C352.532 197.774 353.658 198.21 354.385 199.082C355.184 199.881 355.728 200.861 356.019 202.024C356.31 203.186 356.455 204.312 356.455 205.401C356.455 205.547 356.418 206.055 356.346 206.927C356.273 207.726 356.164 208.525 356.019 209.324C355.946 210.123 355.91 210.632 355.91 210.85V214.336H369.204C370.802 214.336 372.037 215.099 372.908 216.625C373.78 218.078 374.216 219.567 374.216 221.092C374.216 221.383 374.107 221.928 373.889 222.727C373.671 223.526 373.272 224.288 372.69 225.015C372.109 225.669 371.31 225.996 370.293 225.996H356.346C356.273 225.996 356.128 226.068 355.91 226.214C355.692 226.286 355.438 226.504 355.147 226.867L354.929 227.194C354.566 229.156 354.312 230.754 354.167 231.989C354.021 233.151 353.912 234.241 353.84 235.258C353.84 236.202 353.84 237.364 353.84 238.744C353.84 242.74 353.912 246.735 354.058 250.73C354.276 254.726 354.385 258.939 354.385 263.37C354.385 264.823 354.276 266.312 354.058 267.838C353.84 269.363 353.331 270.635 352.532 271.651C351.733 272.741 350.498 273.286 348.827 273.286Z" fill="white"/>
<path d="M166.459 405.134C165.079 405.134 163.989 405.134 163.19 405.134C162.464 405.061 161.556 404.88 160.466 404.589C159.958 404.299 159.268 403.972 158.396 403.608C157.524 403.173 156.689 402.773 155.89 402.41C155.091 402.047 154.509 401.865 154.146 401.865C153.638 401.865 152.839 402.337 151.749 403.282C150.732 404.153 149.57 404.589 148.262 404.589C146.373 404.589 145.066 403.935 144.339 402.628C143.613 401.248 143.25 399.686 143.25 397.942C143.25 396.344 143.322 394.928 143.468 393.693C143.613 392.385 143.904 390.932 144.339 389.334C145.429 381.344 146.265 373.135 146.846 364.708C147.499 356.209 147.826 347.783 147.826 339.429C147.826 337.322 147.826 335.252 147.826 333.218C147.826 331.184 147.754 329.15 147.608 327.116C147.536 325.663 147.972 324.646 148.916 324.065C149.86 323.484 150.914 323.193 152.076 323.193H153.057C154.655 323.193 155.999 323.593 157.088 324.392C158.178 325.191 158.868 326.607 159.159 328.641V334.525C159.159 338.739 159.086 342.952 158.941 347.165C158.795 351.378 158.686 355.882 158.614 360.677H158.941C161.919 357.262 165.224 354.357 168.856 351.96C172.489 349.562 176.52 348.364 180.951 348.364C184.366 348.364 187.671 349.163 190.867 350.761C194.136 352.286 196.824 354.466 198.93 357.299C201.037 360.059 202.09 363.256 202.09 366.888C202.09 371.755 201.182 376.476 199.366 381.053C197.55 385.557 195.008 389.625 191.739 393.257C188.47 396.889 184.692 399.795 180.407 401.974C176.121 404.081 171.472 405.134 166.459 405.134ZM166.459 393.475C169.292 393.475 172.162 392.785 175.067 391.405C177.973 390.024 180.624 388.172 183.022 385.847C185.419 383.523 187.344 380.944 188.797 378.111C190.322 375.278 191.085 372.408 191.085 369.503C191.085 367.178 190.25 365.035 188.579 363.074C186.981 361.04 184.947 360.023 182.477 360.023C179.862 360.023 177.465 360.64 175.285 361.875C173.179 363.11 171.217 364.708 169.401 366.67C167.658 368.558 166.06 370.629 164.607 372.881C163.154 375.133 161.81 377.239 160.575 379.201C160.067 380.363 159.413 381.67 158.614 383.123C157.887 384.576 157.524 385.956 157.524 387.264C157.524 388.571 158.033 389.697 159.05 390.642C160.067 391.586 161.265 392.313 162.645 392.821C164.098 393.257 165.37 393.475 166.459 393.475Z" fill="white"/>
<path d="M217.213 407.313C215.906 407.313 214.925 406.877 214.271 406.006C213.618 405.134 213.182 404.117 212.964 402.955C212.746 401.72 212.528 400.63 212.31 399.686V391.622C212.31 387.554 212.492 383.45 212.855 379.31C213.218 375.096 213.4 370.992 213.4 366.997C213.4 365.108 213.218 363.292 212.855 361.548C212.492 359.805 212.31 358.025 212.31 356.209V353.267C212.891 352.177 213.654 351.378 214.598 350.87C215.615 350.361 216.669 350.107 217.758 350.107C219.356 350.107 220.555 350.579 221.354 351.524C222.153 352.395 222.698 353.449 222.988 354.684C223.352 355.919 223.679 357.045 223.969 358.062C224.26 359.006 224.732 359.551 225.386 359.696C227.492 358.316 229.49 356.972 231.379 355.664C233.34 354.357 235.374 353.303 237.481 352.504C239.66 351.633 242.057 351.197 244.672 351.197C245.98 351.197 247.36 351.487 248.813 352.069C250.338 352.65 251.646 353.485 252.736 354.575C253.825 355.592 254.37 356.863 254.37 358.388C254.37 360.277 253.607 361.657 252.082 362.529C250.629 363.401 249.249 363.837 247.941 363.837C247.069 363.837 246.234 363.655 245.435 363.292C244.636 362.929 243.801 362.747 242.929 362.747C240.386 362.747 237.989 363.401 235.737 364.708C233.558 365.943 231.633 367.432 229.962 369.176C228.291 370.919 226.947 372.554 225.93 374.079C225.64 374.733 225.422 375.823 225.277 377.348C225.131 378.874 225.022 380.617 224.95 382.578C224.877 384.467 224.805 386.32 224.732 388.136C224.732 389.952 224.696 391.513 224.623 392.821C224.55 395.218 224.296 397.543 223.86 399.795C223.497 401.974 222.807 403.79 221.79 405.243C220.773 406.623 219.247 407.313 217.213 407.313Z" fill="white"/>
<path d="M285.128 406.224C279.897 406.224 275.03 405.098 270.527 402.846C266.023 400.594 262.391 397.398 259.63 393.257C256.87 389.116 255.49 384.286 255.49 378.765C255.49 374.987 256.252 371.5 257.778 368.304C259.376 365.035 261.374 361.984 263.771 359.151C266.241 356.318 268.71 353.667 271.18 351.197C272.488 349.889 274.05 348.945 275.866 348.364C277.682 347.71 279.534 347.383 281.423 347.383C286.145 347.383 290.685 347.892 295.043 348.909C299.402 349.926 303.288 351.596 306.703 353.921C310.189 356.173 312.95 359.188 314.984 362.965C317.018 366.67 318.035 371.21 318.035 376.585C318.035 381.017 317.09 385.048 315.202 388.68C313.313 392.313 310.771 395.436 307.574 398.051C304.451 400.666 300.927 402.7 297.005 404.153C293.155 405.534 289.196 406.224 285.128 406.224ZM282.948 394.129C286.944 394.129 290.721 393.439 294.281 392.058C297.84 390.605 300.746 388.462 302.998 385.629C305.322 382.724 306.485 379.164 306.485 374.951C306.485 371.246 305.395 368.159 303.216 365.689C301.109 363.219 298.421 361.403 295.152 360.241C291.883 359.006 288.542 358.388 285.128 358.388C283.384 358.388 281.968 358.643 280.878 359.151C279.788 359.66 278.808 360.35 277.936 361.222C277.064 362.093 276.047 363.11 274.885 364.272C272.851 366.379 271.035 368.704 269.437 371.246C267.839 373.716 267.04 376.549 267.04 379.745C267.04 384.83 268.565 388.499 271.616 390.751C274.667 393.003 278.445 394.129 282.948 394.129Z" fill="white"/>
<path d="M340.017 385.303C338.418 385.303 337.256 384.903 336.53 384.104C335.803 383.305 335.331 382.397 335.113 381.38C334.895 380.29 334.786 379.382 334.786 378.656C334.786 375.096 335.331 372.154 336.421 369.83C337.583 367.505 339.072 365.544 340.888 363.946C342.704 362.275 344.629 360.786 346.663 359.478C348.697 358.098 350.622 356.681 352.438 355.228C354.255 353.703 355.707 351.923 356.797 349.889C357.959 347.855 358.54 345.276 358.54 342.153C358.54 338.957 357.705 336.378 356.034 334.416C354.363 332.382 352.148 331.365 349.387 331.365C347.644 331.365 346.155 331.765 344.92 332.564C343.685 333.363 342.486 334.271 341.324 335.288C340.235 336.305 339.072 337.213 337.837 338.012C336.675 338.811 335.258 339.211 333.588 339.211C331.699 339.211 330.428 338.666 329.774 337.576C329.193 336.414 328.902 335.143 328.902 333.763C328.902 330.784 329.629 328.351 331.082 326.462C332.607 324.501 334.496 322.975 336.748 321.886C339 320.723 341.324 319.924 343.721 319.488C346.119 319.052 348.189 318.835 349.932 318.835C354.218 318.835 357.887 319.96 360.938 322.212C363.989 324.464 366.313 327.406 367.911 331.038C369.582 334.671 370.418 338.557 370.418 342.698C370.418 347.492 369.437 352.032 367.475 356.318C365.587 360.604 362.608 364.236 358.54 367.215C356.942 368.304 355.272 369.394 353.528 370.483C351.785 371.5 350.332 372.844 349.17 374.515C348.443 375.387 347.862 376.44 347.426 377.675C347.063 378.837 346.627 380.036 346.119 381.271C345.61 382.433 344.884 383.414 343.939 384.213C343.068 384.939 341.76 385.303 340.017 385.303ZM338.818 406.333C337.075 406.333 335.513 405.715 334.133 404.48C332.825 403.245 332.171 401.393 332.171 398.923C332.171 395.799 333.043 393.439 334.786 391.84C336.53 390.242 338.382 389.443 340.343 389.443C342.087 389.443 343.612 390.061 344.92 391.296C346.3 392.53 346.99 394.383 346.99 396.853C346.99 399.976 346.119 402.337 344.375 403.935C342.632 405.534 340.779 406.333 338.818 406.333Z" fill="white"/>
</g>
<defs>
<clipPath id="clip0_1_3">
<rect width="512" height="512" fill="white"/>
</clipPath>
</defs>
</svg>
